:SAMPLES-PER-SECOND 30
:FRAME-RANGE 1-668
:FULLY-SPECIFIED
:DEGREES
439
root  13.1813 39.2293 -41.4773 0.951813 -51.9674 1.06494
RightUpLeg  6.46702 -17.3007 -8.56738
RightLeg  17.6128 -2.14924 -0.84174
RightFoot  -17.1192 0.74399 16.9446
RightToes  -1.33073e-015 0 -3.6325e-017
Spine  4.06233 -0.542536 1.8227
Spine1  5.26372 -1.22705 2.70593
HEad  -2.22074 9.54821 -6.45586
LeftShoulder1  1.75604 -2.17519 -24.7205
LeftArm  -6.40412 -36.2746 -22.3214
LeftForeArm  11.8933 -4.50913 -16.4149
LeftHand  0.144722 -2.40355 -1.96732
RightShoulder  10.2367 15.705 46.6043
RightArm  -8.88858 6.80977 7.68922
RightForeArm  25.0276 1.09163 14.112
RightHand  -0.421365 4.49111 -5.23119
LeftUpLeg  -19.7574 3.50908 -4.63815
LeftLeg  7.28489 13.7753 -2.05274
LeftFoot  4.86403 -0.572295 3.81088
LeftToes  -2.73175e-012 1.00346e-010 -4.28452e-011
440
root  12.3745 38.9429 -40.5805 -1.09268 -51.6006 3.08682
RightUpLeg  2.76186 -11.4202 -9.53792
RightLeg  29.2611 -4.39666 -2.8929
RightFoot  -16.2615 0.941128 24.1611
RightToes  -1.33073e-015 0 -3.6325e-017
Spine  4.91234 -0.73957 -1.11447
Spine1  4.69805 -1.78875 3.32837
HEad  -1.12509 10.0585 -6.32726
LeftShoulder1  1.76836 -2.20235 -24.7926
LeftArm  -6.464 -37.1071 -21.6856
LeftForeArm  11.459 -6.14212 -15.8389
LeftHand  0.106816 -2.31554 -1.42449
RightShoulder  9.91942 14.9057 47.1427
RightArm  -9.10876 6.74878 6.8217
RightForeArm  24.693 2.14233 13.9154
RightHand  -0.461723 4.57021 -5.66354
LeftUpLeg  -20.6393 6.35217 -7.72014
LeftLeg  13.4916 10.3705 -0.0335468
LeftFoot  2.46323 -0.706923 5.71133
LeftToes  -2.73175e-012 1.00346e-010 -4.28452e-011
441
root  11.6282 38.718 -39.7414 -2.77692 -51.623 5.00726
RightUpLeg  -3.45992 -6.89878 -11.0244
RightLeg  43.1044 -4.22834 -4.51952
RightFoot  -9.38041 -0.561702 28.4817
RightToes  -1.33073e-015 0 -3.6325e-017
Spine  5.41713 -0.892401 -3.84722
Spine1  4.85537 -2.34552 3.74154
HEad  -0.424256 10.8715 -6.41167
LeftShoulder1  1.81163 -2.36826 -24.6488
LeftArm  -6.99595 -37.9441 -21.1306
LeftForeArm  11.1554 -7.40332 -15.2835
LeftHand  0.0903254 -2.49198 -1.13448
RightShoulder  9.67584 14.5563 46.8722
RightArm  -10.868 6.4229 7.10024
RightForeArm  25.1129 2.7839 13.2755
RightHand  -0.515103 4.06342 -6.58921
LeftUpLeg  -20.912 10.6596 -10.1395
LeftLeg  17.8269 6.43281 0.117337
LeftFoot  -1.00682 -0.530722 5.93067
LeftToes  -2.73175e-012 1.00346e-010 -4.28452e-011
442
root  10.8783 38.71 -38.8376 -4.32452 -52.5124 6.70837
RightUpLeg  -11.5109 -2.32108 -12.0197
RightLeg  55.6337 -3.10824 -5.29764
RightFoot  3.34914 -1.90467 14.8781
RightToes  -1.33073e-015 0 -3.6325e-017
Spine  5.82499 -1.11268 -5.22838
Spine1  4.88629 -2.52754 3.06233
HEad  -0.252467 12.2911 -6.48339
LeftShoulder1  1.8349 -2.48797 -24.411
LeftArm  -6.61587 -38.7479 -19.9641
LeftForeArm  10.3706 -8.86944 -14.6827
LeftHand  0.0883053 -2.68319 -1.0632
RightShoulder  9.56489 14.3647 46.8326
RightArm  -9.9612 5.97258 7.56789
RightForeArm  23.4501 4.7111 13.0041
RightHand  -0.565933 4.23822 -7.09102
LeftUpLeg  -19.3048 12.4703 -10.8848
LeftLeg  19.0958 6.09964 -0.594286
LeftFoot  -3.79192 -0.353009 5.69283
LeftToes  -2.73175e-012 1.00346e-010 -4.28452e-011
443
root  10.1963 38.588 -37.9673 -5.78299 -53.239 8.21509
RightUpLeg  -17.0556 1.85028 -13.2003
RightLeg  61.2083 -1.20357 -2.88909
RightFoot  3.08701 -1.71595 13.6646
RightToes  -1.33073e-015 0 -3.6325e-017
Spine  6.60264 -1.63323 -6.55545
Spine1  4.76736 -3.10529 2.30914
HEad  -0.0599287 14.4729 -7.10426
LeftShoulder1  1.84319 -2.50073 -24.4875
LeftArm  -7.66572 -39.4115 -18.3721
LeftForeArm  10.8458 -9.62247 -14.2281
LeftHand  0.0732716 -2.80275 -0.82475
RightShoulder  9.4241 14.118 46.7905
RightArm  -7.30261 5.93159 8.09103
RightForeArm  20.7515 7.28545 12.6281
RightHand  -0.597593 4.32444 -7.41014
LeftUpLeg  -18.304 12.7254 -11.7724
LeftLeg  21.3077 6.74541 -0.0762947
LeftFoot  -6.63224 -0.187176 5.52038
LeftToes  -2.73175e-012 1.00346e-010 -4.28452e-011
444
root  9.5055 38.6531 -36.9909 -5.83826 -53.7599 7.89932
RightUpLeg  -20.9919 4.39849 -13.1822
RightLeg  60.8396 -0.619698 -1.70713
RightFoot  1.89723 -1.58628 13.7215
RightToes  -1.33073e-015 0 -3.6325e-017
Spine  7.39481 -2.35688 -6.57085
Spine1  4.33444 -3.89937 2.55019
HEad  -0.156417 16.944 -8.43617
LeftShoulder1  1.87296 -2.57723 -24.5966
LeftArm  -9.2959 -39.5142 -17.4928
LeftForeArm  10.7133 -10.2404 -13.7718
LeftHand  0.0619567 -2.76299 -0.670376
RightShoulder  9.15081 13.715 46.4931
RightArm  -2.95831 5.80202 8.39132
RightForeArm  17.5869 10.3416 11.8133
RightHand  -0.649162 4.15272 -8.15754
LeftUpLeg  -16.1685 11.7909 -11.5294
LeftLeg  21.738 8.20899 0.488521
LeftFoot  -8.81436 -0.0579149 5.02939
LeftToes  -2.73175e-012 1.00346e-010 -4.28452e-011
445
root  8.77905 38.8218 -35.9649 -5.38889 -54.6825 7.28299
RightUpLeg  -23.9293 6.36044 -12.4711
RightLeg  55.7836 -2.18283 -3.86715
RightFoot  0.0901224 -1.26972 12.6443
RightToes  -1.33073e-015 0 -3.6325e-017
Spine  7.29777 -2.84036 -6.67854
Spine1  4.35463 -4.52146 3.76984
HEad  -0.422303 19.374 -9.65406
LeftShoulder1  1.90839 -2.71444 -24.4825
LeftArm  -12.5063 -39.721 -17.246
LeftForeArm  11.9847 -9.88329 -13.6543
LeftHand  0.0628901 -2.78978 -0.679358
RightShoulder  8.82118 13.2582 46.0304
RightArm  1.02045 5.43646 8.52539
RightForeArm  15.3158 13.0543 10.6001
RightHand  -0.705109 4.19252 -8.80039
LeftUpLeg  -13.3266 9.96 -10.7541
LeftLeg  20.4116 11.0147 0.37896
LeftFoot  -10.2497 0.0163496 4.75613
LeftToes  -2.73175e-012 1.00346e-010 -4.28452e-011
446
root  8.06072 38.9885 -34.9304 -4.63321 -55.898 6.68518
RightUpLeg  -25.7548 7.63918 -11.2947
RightLeg  47.0729 -5.6711 -6.80767
RightFoot  -1.71646 -1.00958 11.8128
RightToes  -1.33073e-015 0 -3.6325e-017
Spine  6.97628 -3.28804 -6.62547
Spine1  3.99982 -5.01656 5.00506
HEad  -0.21629 21.8738 -10.0964
LeftShoulder1  1.91603 -2.79845 -24.1812
LeftArm  -15.433 -39.8984 -16.9255
LeftForeArm  13.5462 -9.20491 -13.6965
LeftHand  0.0614968 -2.78933 -0.674166
RightShoulder  8.38623 12.4896 45.8652
RightArm  5.72007 4.91221 8.41889
RightForeArm  12.0038 16.021 8.90113
RightHand  -0.719468 4.1276 -9.03058
LeftUpLeg  -10.6015 8.00003 -10.201
LeftLeg  18.4515 13.892 0.00636073
LeftFoot  -11.2562 0.064293 4.60647
LeftToes  -2.73175e-012 1.00346e-010 -4.28452e-011
447
root  7.34203 39.133 -33.8892 -3.49673 -56.9139 5.41623
RightUpLeg  -25.4001 6.8219 -8.72207
RightLeg  35.3281 -10.5894 -8.20685
RightFoot  -2.4205 -0.875006 10.9731
RightToes  -1.33073e-015 0 -3.6325e-017
Spine  6.87359 -3.85326 -6.17826
Spine1  3.6269 -5.70651 6.39643
HEad  0.0563602 24.2833 -10.0518
LeftShoulder1  1.91134 -2.86207 -23.785
LeftArm  -17.6584 -40.0619 -16.1515
LeftForeArm  14.3814 -8.51827 -13.8214
LeftHand  0.0598331 -2.69347 -0.701432
RightShoulder  7.85917 11.5801 45.5713
RightArm  9.70877 4.25249 8.34977
RightForeArm  8.86314 18.8022 6.98948
RightHand  -0.770731 4.14625 -9.63426
LeftUpLeg  -7.74117 6.86987 -9.73864
LeftLeg  16.392 15.9558 -0.264474
LeftFoot  -12.2345 0.107638 4.36809
LeftToes  -2.73175e-012 1.00346e-010 -4.28452e-011
448
root  6.54576 39.1738 -32.8481 -2.35333 -57.8071 3.85794
RightUpLeg  -23.2313 2.05883 -4.28333
RightLeg  22.4007 -11.9973 -5.58374
RightFoot  -1.71173 -1.00115 11.7082
RightToes  -1.33073e-015 0 -3.6325e-017
Spine  6.68814 -4.42322 -5.69389
Spine1  3.48326 -6.49483 7.75553
HEad  0.623371 26.5316 -9.64957
LeftShoulder1  1.92384 -2.98901 -23.3706
LeftArm  -19.1089 -39.8808 -15.1348
LeftForeArm  14.441 -8.29947 -13.8091
LeftHand  0.0589276 -2.47999 -0.763787
RightShoulder  7.29917 10.5865 45.3061
RightArm  12.1896 3.40727 8.11492
RightForeArm  6.96694 21.2048 5.40631
RightHand  -0.781603 4.32167 -9.59995
LeftUpLeg  -5.02793 7.57125 -9.35412
LeftLeg  15.3384 16.2012 -0.294318
LeftFoot  -13.3441 0.166943 4.95685
LeftToes  -2.73175e-012 1.00346e-010 -4.28452e-011
449
root  5.67504 39.1317 -31.8199 -1.2522 -59.2723 2.17276
RightUpLeg  -21.697 -6.94425 2.34654
RightLeg  13.7332 -7.45965 -1.63628
RightFoot  4.03467 -0.608764 4.71109
RightToes  -1.33073e-015 0 -3.6325e-017
Spine  6.02949 -4.64527 -5.15407
Spine1  4.07004 -7.07748 9.13293
HEad  1.53298 28.6014 -9.01964
LeftShoulder1  1.93607 -3.10978 -22.9957
LeftArm  -21.4783 -39.6573 -14.017
LeftForeArm  15.1833 -7.76348 -13.802
LeftHand  0.0579137 -2.30838 -0.686609
RightShoulder  6.69949 9.55408 44.861
RightArm  12.3574 2.49622 7.74307
RightForeArm  6.97249 23.2951 4.68106
RightHand  -0.79684 4.24202 -9.85685
LeftUpLeg  -2.78134 12.8643 -8.71304
LeftLeg  15.7984 12.768 -0.0248432
LeftFoot  -15.1532 0.255693 4.94289
LeftToes  -2.73175e-012 1.00346e-010 -4.28452e-011
450
root  4.77318 38.9192 -30.8372 -0.802795 -61.6366 1.43091
RightUpLeg  -21.0633 -11.7676 6.68133
RightLeg  12.0485 -13.6402 0.473225
RightFoot  4.98775 1.20996 -8.17489
RightToes  -1.33073e-015 0 -3.6325e-017
Spine  5.44599 -4.44472 -4.84457
Spine1  4.24389 -7.14734 9.91479
HEad  2.69897 30.3858 -7.98062
LeftShoulder1  1.90269 -3.07416 -22.6266
LeftArm  -23.7368 -39.2057 -12.7772
LeftForeArm  15.8369 -7.28945 -13.7441
LeftHand  0.0579319 -2.26351 -0.694671
RightShoulder  6.0371 8.37913 44.4106
RightArm  10.763 1.54957 7.28745
RightForeArm  9.07819 25.1724 4.91819
RightHand  -0.787426 4.20644 -9.77812
LeftUpLeg  -2.70249 25.6814 -8.42241
LeftLeg  20.0947 2.48513 1.2377
LeftFoot  -17.354 0.27345 3.22119
LeftToes  -2.73175e-012 1.00346e-010 -4.28452e-011
